<svg width="105" height="60" viewBox="0 0 105 60" fill="none" xmlns="http://www.w3.org/2000/svg">
<path d="M0.877131 59V0.81818H23.8317C28.2256 0.81818 31.9756 1.60417 35.0817 3.17614C38.2067 4.72917 40.5836 6.93561 42.2124 9.79545C43.8601 12.6364 44.684 15.9792 44.684 19.8239C44.684 23.6875 43.8506 27.0114 42.184 29.7955C40.5173 32.5606 38.1025 34.6818 34.9396 36.1591C31.7957 37.6364 27.9889 38.375 23.5192 38.375H8.14986V28.4886H21.5305C23.879 28.4886 25.8298 28.1667 27.3828 27.5227C28.9358 26.8788 30.0911 25.9129 30.8487 24.625C31.6252 23.3371 32.0135 21.7367 32.0135 19.8239C32.0135 17.892 31.6252 16.2633 30.8487 14.9375C30.0911 13.6117 28.9264 12.608 27.3544 11.9261C25.8014 11.2254 23.8411 10.875 21.4737 10.875H13.1783V59H0.877131ZM32.2976 32.5227L46.7578 59H33.1783L19.0305 32.5227H32.2976ZM91.9567 19.625C91.559 18.2424 91.0002 17.0208 90.2805 15.9602C89.5608 14.8807 88.6802 13.9716 87.6385 13.233C86.6158 12.4754 85.4415 11.8977 84.1158 11.5C82.8089 11.1023 81.3601 10.9034 79.7692 10.9034C76.7957 10.9034 74.1821 11.642 71.9283 13.1193C69.6934 14.5966 67.951 16.7462 66.701 19.5682C65.451 22.3712 64.826 25.7992 64.826 29.8523C64.826 33.9053 65.4415 37.3523 66.6726 40.1932C67.9036 43.0341 69.6461 45.2027 71.8999 46.6989C74.1536 48.1761 76.8146 48.9148 79.8828 48.9148C82.6669 48.9148 85.0438 48.4223 87.0135 47.4375C89.0021 46.4337 90.5173 45.0227 91.559 43.2045C92.6196 41.3864 93.1499 39.2367 93.1499 36.7557L95.6499 37.125H80.6499V27.8636H104.996V35.1932C104.996 40.3068 103.917 44.7008 101.758 48.375C99.5987 52.0303 96.6252 54.8523 92.8374 56.8409C89.0495 58.8106 84.7124 59.7955 79.826 59.7955C74.3714 59.7955 69.5798 58.5928 65.451 56.1875C61.3222 53.7633 58.1025 50.3258 55.7919 45.875C53.5002 41.4053 52.3544 36.1023 52.3544 29.9659C52.3544 25.25 53.0362 21.0455 54.3999 17.3523C55.7824 13.6402 57.7143 10.4962 60.1953 7.92045C62.6764 5.3447 65.5646 3.38447 68.8601 2.03977C72.1555 0.695073 75.7256 0.0227251 79.5703 0.0227251C82.8658 0.0227251 85.9339 0.50568 88.7749 1.47159C91.6158 2.41856 94.1347 3.76326 96.3317 5.50568C98.5476 7.2481 100.356 9.32197 101.758 11.7273C103.159 14.1136 104.059 16.7462 104.457 19.625H91.9567Z" fill="#E7000D"/>
</svg>
